<svg width="300" height="300" viewBox="0 0 300 300" fill="none" xmlns="http://www.w3.org/2000/svg">
<rect width="300" height="300" fill="#666666"/>
<path d="M121.493 206C120.197 206 119.16 205.611 118.382 204.834C117.605 204.056 117.216 203.02 117.216 201.724V72.2761C117.216 70.9803 117.605 69.9437 118.382 69.1662C119.16 68.3887 120.197 68 121.493 68H124.799C126.095 68 127.132 68.3887 127.909 69.1662C128.687 69.9437 129.076 70.9803 129.076 72.2761V141.082L172.433 108.234C174.507 106.679 175.933 105.772 176.711 105.513C177.489 105.124 178.785 104.93 180.599 104.93H184.294C185.46 104.93 186.367 105.318 187.016 106.096C187.793 106.744 188.182 107.651 188.182 108.817C188.182 110.242 187.34 111.538 185.655 112.704L136.464 150.023L190.515 198.225C192.2 199.78 193.043 201.076 193.043 202.113C193.043 203.279 192.654 204.251 191.876 205.028C191.228 205.676 190.321 206 189.154 206H186.043C184.099 206 182.673 205.87 181.766 205.611C180.859 205.223 179.562 204.251 177.877 202.696L129.076 159.352V201.724C129.076 203.02 128.687 204.056 127.909 204.834C127.132 205.611 126.095 206 124.799 206H121.493Z" fill="white"/>
<path d="M219.552 205.448C218.416 205.448 217.469 205.132 216.712 204.501C216.081 203.744 215.765 202.798 215.765 201.663V198.445C215.765 197.184 216.018 196.174 216.523 195.417C217.154 194.534 218.226 193.588 219.741 192.579L274.452 154.728L219.741 116.878C218.226 115.869 217.154 114.985 216.523 114.228C216.018 113.345 215.765 112.273 215.765 111.011V107.794C215.765 106.658 216.081 105.775 216.712 105.144C217.469 104.387 218.416 104.009 219.552 104.009C220.687 104.009 222.391 104.766 224.663 106.28L280.51 144.887C282.529 146.275 283.918 147.663 284.675 149.051C285.558 150.312 286 151.826 286 153.593V155.864C286 157.63 285.558 159.207 284.675 160.595C283.918 161.857 282.529 163.181 280.51 164.569L224.663 203.177C222.391 204.691 220.687 205.448 219.552 205.448Z" fill="white"/>
<path d="M80.4484 205.448C79.3125 205.448 77.6087 204.691 75.337 203.177L19.49 164.569C17.4707 163.181 16.0193 161.857 15.1359 160.595C14.3786 159.207 14 157.63 14 155.864V153.593C14 151.826 14.3786 150.312 15.1359 149.051C16.0193 147.663 17.4707 146.275 19.49 144.887L75.337 106.28C77.6087 104.766 79.3125 104.009 80.4484 104.009C81.5843 104.009 82.4677 104.387 83.0988 105.144C83.856 105.775 84.2347 106.658 84.2347 107.794V111.011C84.2347 112.273 83.9191 113.345 83.2881 114.228C82.7833 114.985 81.7736 115.869 80.2591 116.878L25.548 154.728L80.2591 192.579C81.7736 193.588 82.7833 194.534 83.2881 195.417C83.9191 196.174 84.2347 197.184 84.2347 198.445V201.663C84.2347 202.798 83.856 203.744 83.0988 204.501C82.4677 205.132 81.5843 205.448 80.4484 205.448Z" fill="white"/>
</svg>
